<svg width="218" height="218" viewBox="0 0 218 218" fill="none" xmlns="http://www.w3.org/2000/svg">
<path d="M109 199.835C103.853 199.835 99.5002 198.056 95.9427 194.499C92.3852 190.941 90.6063 186.589 90.6063 181.441H127.394C127.394 186.589 125.615 190.941 122.057 194.499C118.5 198.056 114.147 199.835 109 199.835ZM72.2125 167.362V153.737H145.787V167.362H72.2125ZM73.3479 139.885C63.3562 133.376 55.446 125.238 49.6177 115.474C43.7893 105.709 40.875 94.6956 40.875 82.4332C40.875 63.9636 47.6117 47.9923 61.0854 34.5185C74.5592 21.0449 90.5304 14.3081 109 14.3081C127.47 14.3081 143.441 21.0449 156.915 34.5185C170.388 47.9923 177.125 63.9636 177.125 82.4332C177.125 94.6956 174.249 105.709 168.496 115.474C162.743 125.238 154.795 133.376 144.652 139.885H73.3479ZM78.3438 126.26H139.883C147.15 121.416 152.903 115.133 157.142 107.412C161.38 99.6915 163.5 91.3652 163.5 82.4332C163.5 67.4457 158.164 54.6154 147.491 43.9425C136.818 33.2696 123.987 27.9331 109 27.9331C94.0125 27.9331 81.1823 33.2696 70.5094 43.9425C59.8365 54.6154 54.5 67.4457 54.5 82.4332C54.5 91.3652 56.6196 99.6915 60.8583 107.412C65.0971 115.133 70.9258 121.416 78.3438 126.26Z" fill="black"/>
</svg>
