<svg width="218" height="218" viewBox="0 0 218 218" fill="none" xmlns="http://www.w3.org/2000/svg">
<path d="M187.858 63.3572L180.341 55.8379C180.339 55.8356 180.343 55.84 180.341 55.8379L153.317 28.8069C151.543 27.0327 148.669 27.0327 146.895 28.8069C145.121 30.5809 145.121 33.455 146.895 35.2291L162.765 51.1022L154.275 73.74C151.152 82.0516 153.192 91.4856 159.472 97.7749L190.75 129.047V172.583C190.75 182.598 182.598 190.75 172.583 190.75C162.569 190.75 154.417 182.598 154.417 172.583V149.875C154.417 137.35 144.233 127.167 131.708 127.167H127.167V40.8751C127.167 28.3544 116.983 18.1667 104.458 18.1667H40.875C28.3543 18.1667 18.1666 28.3544 18.1666 40.8751V177.125C18.1666 189.65 28.3543 199.833 40.875 199.833H104.458C116.983 199.833 127.167 189.65 127.167 177.125V136.25H131.708C139.221 136.25 145.333 142.362 145.333 149.875V172.583C145.333 187.61 157.557 199.833 172.583 199.833C187.61 199.833 199.833 187.61 199.833 172.583V92.2568C199.833 81.5017 195.469 70.9681 187.858 63.3572ZM118.083 177.125C118.083 184.638 111.971 190.75 104.458 190.75H40.875C33.3617 190.75 27.25 184.638 27.25 177.125V99.9167H118.083V177.125ZM118.083 90.8334H27.25V40.8751C27.25 33.3618 33.3617 27.2501 40.875 27.2501H104.458C111.971 27.2501 118.083 33.3618 118.083 40.8751V90.8334ZM190.75 116.203L165.895 91.3566C162.134 87.5824 160.909 81.9186 162.772 76.9335L169.816 58.1591L181.436 69.7794C187.353 75.7004 190.75 83.8923 190.75 92.2568V116.203Z" fill="black"/>
</svg>
