<svg width="40" height="40" viewBox="0 0 40 40" fill="none" xmlns="http://www.w3.org/2000/svg">
<path d="M23.3333 24.6V5.83329C23.3333 4.72822 22.8943 3.66842 22.1129 2.88701C21.3315 2.10561 20.2717 1.66663 19.1666 1.66663C18.0616 1.66663 17.0017 2.10561 16.2203 2.88701C15.4389 3.66842 15 4.72822 15 5.83329V24.6C13.6621 25.4939 12.6472 26.7943 12.1051 28.3093C11.563 29.8243 11.5225 31.4734 11.9896 33.0131C12.4566 34.5529 13.4065 35.9016 14.6989 36.8601C15.9912 37.8186 17.5576 38.3361 19.1666 38.3361C20.7757 38.3361 22.342 37.8186 23.6344 36.8601C24.9268 35.9016 25.8766 34.5529 26.3437 33.0131C26.8108 31.4734 26.7703 29.8243 26.2282 28.3093C25.6861 26.7943 24.6712 25.4939 23.3333 24.6Z" stroke="white" stroke-width="2" stroke-linecap="round" stroke-linejoin="round"/>
</svg>
