<svg width="40" height="40" viewBox="0 0 40 40" fill="none" xmlns="http://www.w3.org/2000/svg">
<mask id="path-1-outside-1_122_81" maskUnits="userSpaceOnUse" x="4.6665" y="23" width="31" height="14" fill="black">
<rect fill="white" x="4.6665" y="23" width="31" height="14"/>
<path d="M33.3332 35V31.6667C33.3332 29.8986 32.6308 28.2029 31.3805 26.9526C30.1303 25.7024 28.4346 25 26.6665 25H13.3332C11.5651 25 9.86937 25.7024 8.61913 26.9526C7.36888 28.2029 6.6665 29.8986 6.6665 31.6667V35"/>
</mask>
<path d="M31.3332 35C31.3332 36.1046 32.2286 37 33.3332 37C34.4377 37 35.3332 36.1046 35.3332 35H31.3332ZM26.6665 25V23V25ZM13.3332 25V23V25ZM6.6665 31.6667H4.6665H6.6665ZM4.6665 35C4.6665 36.1046 5.56193 37 6.6665 37C7.77107 37 8.6665 36.1046 8.6665 35H4.6665ZM35.3332 35V31.6667H31.3332V35H35.3332ZM35.3332 31.6667C35.3332 29.3681 34.4201 27.1637 32.7948 25.5384L29.9663 28.3668C30.8415 29.242 31.3332 30.429 31.3332 31.6667H35.3332ZM32.7948 25.5384C31.1694 23.9131 28.965 23 26.6665 23L26.6665 27C27.9042 27 29.0912 27.4917 29.9663 28.3668L32.7948 25.5384ZM26.6665 23H13.3332V27H26.6665V23ZM13.3332 23C11.0346 23 8.83023 23.9131 7.20491 25.5384L10.0333 28.3668C10.9085 27.4917 12.0955 27 13.3332 27V23ZM7.20491 25.5384C5.5796 27.1637 4.6665 29.3681 4.6665 31.6667H8.6665C8.6665 30.429 9.15817 29.242 10.0333 28.3668L7.20491 25.5384ZM4.6665 31.6667V35H8.6665V31.6667H4.6665Z" fill="#46DFB1" mask="url(#path-1-outside-1_122_81)"/>
<path d="M20.0002 19.3333C24.2343 19.3333 27.6668 15.9009 27.6668 11.6667C27.6668 7.43248 24.2343 4 20.0002 4C15.766 4 12.3335 7.43248 12.3335 11.6667C12.3335 15.9009 15.766 19.3333 20.0002 19.3333Z" stroke="#46DFB1" stroke-width="2" stroke-linecap="round" stroke-linejoin="round"/>
</svg>
