<svg width="15" height="17" viewBox="0 0 15 17" fill="none" xmlns="http://www.w3.org/2000/svg">
<path d="M7.5 8.5C8.44483 8.5 9.35097 8.12467 10.0191 7.45657C10.6872 6.78847 11.0625 5.88233 11.0625 4.9375C11.0625 3.99267 10.6872 3.08653 10.0191 2.41843C9.35097 1.75033 8.44483 1.375 7.5 1.375C6.55517 1.375 5.64903 1.75033 4.98093 2.41843C4.31283 3.08653 3.9375 3.99267 3.9375 4.9375C3.9375 5.88233 4.31283 6.78847 4.98093 7.45657C5.64903 8.12467 6.55517 8.5 7.5 8.5ZM7.5 9.6875C6.24022 9.6875 5.03204 9.18706 4.14124 8.29626C3.25044 7.40546 2.75 6.19728 2.75 4.9375C2.75 3.67772 3.25044 2.46954 4.14124 1.57874C5.03204 0.687945 6.24022 0.1875 7.5 0.1875C8.75978 0.1875 9.96796 0.687945 10.8588 1.57874C11.7496 2.46954 12.25 3.67772 12.25 4.9375C12.25 6.19728 11.7496 7.40546 10.8588 8.29626C9.96796 9.18706 8.75978 9.6875 7.5 9.6875ZM13.4375 15.625V13.8438C13.4375 13.3713 13.2498 12.9183 12.9158 12.5842C12.5817 12.2502 12.1287 12.0625 11.6562 12.0625H3.34375C2.87133 12.0625 2.41827 12.2502 2.08422 12.5842C1.75017 12.9183 1.5625 13.3713 1.5625 13.8438V15.625C1.5625 15.7825 1.49994 15.9335 1.38859 16.0448C1.27724 16.1562 1.12622 16.2188 0.96875 16.2188C0.811278 16.2188 0.660255 16.1562 0.548905 16.0448C0.437556 15.9335 0.375 15.7825 0.375 15.625V13.8438C0.375 13.0564 0.687778 12.3013 1.24453 11.7445C1.80128 11.1878 2.55639 10.875 3.34375 10.875H11.6562C12.4436 10.875 13.1987 11.1878 13.7555 11.7445C14.3122 12.3013 14.625 13.0564 14.625 13.8438V15.625C14.625 15.7825 14.5624 15.9335 14.4511 16.0448C14.3397 16.1562 14.1887 16.2188 14.0312 16.2188C13.8738 16.2188 13.7228 16.1562 13.6114 16.0448C13.5001 15.9335 13.4375 15.7825 13.4375 15.625Z" fill="black"/>
</svg>
