<svg width="45" height="45" viewBox="0 0 45 45" fill="none" xmlns="http://www.w3.org/2000/svg">
<path d="M17.9813 8.60622C18.4168 8.16806 18.9539 7.8443 19.5448 7.66373C20.1356 7.48316 20.7619 7.45138 21.368 7.5712C21.9741 7.69102 22.5412 7.95874 23.0189 8.35055C23.4966 8.74236 23.8701 9.24613 24.1062 9.81708C24.3423 10.388 24.4336 11.0085 24.3721 11.6232C24.3106 12.238 24.0982 12.828 23.7537 13.3409C23.4092 13.8538 22.9434 14.2736 22.3975 14.563C21.8517 14.8525 21.2428 15.0026 20.625 15H3.75M23.6063 36.3937C24.0418 36.8319 24.5789 37.1556 25.1698 37.3362C25.7606 37.5168 26.3869 37.5486 26.993 37.4287C27.5991 37.3089 28.1662 37.0412 28.6439 36.6494C29.1216 36.2576 29.4951 35.7538 29.7312 35.1829C29.9673 34.6119 30.0586 33.9915 29.9971 33.3767C29.9356 32.762 29.7232 32.1719 29.3787 31.659C29.0342 31.1462 28.5684 30.7263 28.0225 30.4369C27.4767 30.1475 26.8678 29.9974 26.25 30H3.75M33.2438 14.4937C33.7891 13.9498 34.4601 13.5486 35.1974 13.3256C35.9347 13.1027 36.7155 13.0649 37.4709 13.2155C38.2263 13.3662 38.9329 13.7006 39.5283 14.1893C40.1236 14.6781 40.5894 15.306 40.8843 16.0175C41.1793 16.7291 41.2943 17.5023 41.2193 18.2689C41.1443 19.0355 40.8816 19.7718 40.4543 20.4127C40.027 21.0536 39.4484 21.5793 38.7696 21.9434C38.0908 22.3074 37.3328 22.4986 36.5625 22.5H3.75" stroke="white" stroke-width="2" stroke-linecap="round" stroke-linejoin="round"/>
</svg>
